solid OpenSCAD_Model
  facet normal -1 0 0
    outer loop
      vertex 4 5 175
      vertex 4 10 190
      vertex 4 10 175
    endloop
  endfacet
  facet normal -1 -0 0
    outer loop
      vertex 4 10 190
      vertex 4 5 175
      vertex 4 5 190
    endloop
  endfacet
  facet normal -0 0 1
    outer loop
      vertex 88 95 190
      vertex 90 90 190
      vertex 90 95 190
    endloop
  endfacet
  facet normal -0 0 1
    outer loop
      vertex 13 95 190
      vertex 90 90 190
      vertex 88 95 190
    endloop
  endfacet
  facet normal -0 0 1
    outer loop
      vertex 10 96 190
      vertex 13 95 190
      vertex 10 99 190
    endloop
  endfacet
  facet normal 0 0 1
    outer loop
      vertex 13 95 190
      vertex 10 90 190
      vertex 90 90 190
    endloop
  endfacet
  facet normal 0 0 1
    outer loop
      vertex 10 96 190
      vertex 10 90 190
      vertex 13 95 190
    endloop
  endfacet
  facet normal -0 0 1
    outer loop
      vertex 5 95 190
      vertex 10 90 190
      vertex 10 96 190
    endloop
  endfacet
  facet normal 0 0 1
    outer loop
      vertex 10 90 190
      vertex 5 90 190
      vertex 10 10 190
    endloop
  endfacet
  facet normal 0 0 1
    outer loop
      vertex 5 95 190
      vertex 10 96 190
      vertex 5 96 190
    endloop
  endfacet
  facet normal 0 0 1
    outer loop
      vertex 10 90 190
      vertex 5 95 190
      vertex 5 90 190
    endloop
  endfacet
  facet normal 0 0 1
    outer loop
      vertex 4 10 190
      vertex 10 10 190
      vertex 5 90 190
    endloop
  endfacet
  facet normal 0 0 1
    outer loop
      vertex 10 10 190
      vertex 4 10 190
      vertex 10 5 190
    endloop
  endfacet
  facet normal 0 0 1
    outer loop
      vertex 10 5 190
      vertex 4 10 190
      vertex 4 5 190
    endloop
  endfacet
  facet normal 0 0 1
    outer loop
      vertex 90 99 190
      vertex 88 95 190
      vertex 90 95 190
    endloop
  endfacet
  facet normal 0 0 1
    outer loop
      vertex 90 99 190
      vertex 13 95 190
      vertex 88 95 190
    endloop
  endfacet
  facet normal 0 -0 1
    outer loop
      vertex 13 95 190
      vertex 90 99 190
      vertex 10 99 190
    endloop
  endfacet
  facet normal 0 0 1
    outer loop
      vertex 90 90 190
      vertex 96 90 190
      vertex 96 95 190
    endloop
  endfacet
  facet normal 0 0 1
    outer loop
      vertex 90 90 190
      vertex 96 95 190
      vertex 90 95 190
    endloop
  endfacet
  facet normal 0 0 1
    outer loop
      vertex 96 90 190
      vertex 90 90 190
      vertex 95 10 190
    endloop
  endfacet
  facet normal 0 0 1
    outer loop
      vertex 90 10 190
      vertex 95 10 190
      vertex 90 90 190
    endloop
  endfacet
  facet normal 0 0 1
    outer loop
      vertex 95 10 190
      vertex 90 10 190
      vertex 95 4 190
    endloop
  endfacet
  facet normal 0 0 1
    outer loop
      vertex 90 10 190
      vertex 90 4 190
      vertex 95 4 190
    endloop
  endfacet
  facet normal -0 0 1
    outer loop
      vertex 10 5 190
      vertex 90 4 190
      vertex 90 10 190
    endloop
  endfacet
  facet normal 0 0 1
    outer loop
      vertex 10 5 190
      vertex 90 10 190
      vertex 10 10 190
    endloop
  endfacet
  facet normal 0 0 1
    outer loop
      vertex 10 1 190
      vertex 90 4 190
      vertex 10 5 190
    endloop
  endfacet
  facet normal 0 0 1
    outer loop
      vertex 90 4 190
      vertex 10 1 190
      vertex 90 1 190
    endloop
  endfacet
  facet normal -0 0 1
    outer loop
      vertex 96 90 190
      vertex 99 10 190
      vertex 99 90 190
    endloop
  endfacet
  facet normal 0 0 1
    outer loop
      vertex 99 10 190
      vertex 96 90 190
      vertex 95 10 190
    endloop
  endfacet
  facet normal -0 0 1
    outer loop
      vertex 1 90 190
      vertex 4 10 190
      vertex 5 90 190
    endloop
  endfacet
  facet normal 0 0 1
    outer loop
      vertex 4 10 190
      vertex 1 90 190
      vertex 1 10 190
    endloop
  endfacet
  facet normal 0 -0 0
    outer loop
      vertex 90 95 190
      vertex 96 95 190
      vertex 88 95 190
    endloop
  endfacet
  facet normal 0 0 -0
    outer loop
      vertex 88 95 190
      vertex 13 95 190
      vertex 90 95 190
    endloop
  endfacet
  facet normal 1 -0 0
    outer loop
      vertex 12 5 180
      vertex 12 13 175
      vertex 12 13 180
    endloop
  endfacet
  facet normal 1 0 0
    outer loop
      vertex 12 13 175
      vertex 12 5 180
      vertex 12 5 175
    endloop
  endfacet
  facet normal 0 1 -0
    outer loop
      vertex 12 13 175
      vertex 5 13 180
      vertex 12 13 180
    endloop
  endfacet
  facet normal 0 1 0
    outer loop
      vertex 5 13 180
      vertex 12 13 175
      vertex 5 13 175
    endloop
  endfacet
  facet normal 0 0 -1
    outer loop
      vertex 90 1 175
      vertex 87 5 175
      vertex 90 4 175
    endloop
  endfacet
  facet normal 0 0 -1
    outer loop
      vertex 10 1 175
      vertex 87 5 175
      vertex 90 1 175
    endloop
  endfacet
  facet normal -0 0 -1
    outer loop
      vertex 87 5 175
      vertex 10 1 175
      vertex 12 5 175
    endloop
  endfacet
  facet normal 0 0 -1
    outer loop
      vertex 10 5 175
      vertex 12 5 175
      vertex 10 1 175
    endloop
  endfacet
  facet normal 0 0 -1
    outer loop
      vertex 12 5 175
      vertex 10 5 175
      vertex 12 13 175
    endloop
  endfacet
  facet normal 0 0 -1
    outer loop
      vertex 4 10 175
      vertex 12 13 175
      vertex 10 5 175
    endloop
  endfacet
  facet normal 0 0 -1
    outer loop
      vertex 4 10 175
      vertex 10 5 175
      vertex 4 5 175
    endloop
  endfacet
  facet normal -0 0 -1
    outer loop
      vertex 12 13 175
      vertex 4 10 175
      vertex 5 13 175
    endloop
  endfacet
  facet normal 0 0 -1
    outer loop
      vertex 1 10 175
      vertex 5 13 175
      vertex 4 10 175
    endloop
  endfacet
  facet normal -0 0 -1
    outer loop
      vertex 5 13 175
      vertex 1 10 175
      vertex 1 90 175
    endloop
  endfacet
  facet normal 0 0 -1
    outer loop
      vertex 5 13 175
      vertex 1 90 175
      vertex 5 90 175
    endloop
  endfacet
  facet normal 0 0 -1
    outer loop
      vertex 95 87 175
      vertex 99 90 175
      vertex 99 10 175
    endloop
  endfacet
  facet normal 0 0 -1
    outer loop
      vertex 95 12 175
      vertex 99 10 175
      vertex 95 10 175
    endloop
  endfacet
  facet normal 0 0 -1
    outer loop
      vertex 95 87 175
      vertex 99 10 175
      vertex 95 12 175
    endloop
  endfacet
  facet normal -0 0 -1
    outer loop
      vertex 99 90 175
      vertex 95 87 175
      vertex 96 90 175
    endloop
  endfacet
  facet normal 0 0 -1
    outer loop
      vertex 88 87 175
      vertex 96 90 175
      vertex 95 87 175
    endloop
  endfacet
  facet normal -0 0 -1
    outer loop
      vertex 96 90 175
      vertex 88 87 175
      vertex 88 95 175
    endloop
  endfacet
  facet normal 0 0 -1
    outer loop
      vertex 96 90 175
      vertex 88 95 175
      vertex 96 95 175
    endloop
  endfacet
  facet normal 0 0 -1
    outer loop
      vertex 90 4 175
      vertex 95 10 175
      vertex 95 4 175
    endloop
  endfacet
  facet normal 0 0 -1
    outer loop
      vertex 87 12 175
      vertex 95 10 175
      vertex 90 4 175
    endloop
  endfacet
  facet normal 0 0 -1
    outer loop
      vertex 87 12 175
      vertex 90 4 175
      vertex 87 5 175
    endloop
  endfacet
  facet normal 0 0 -1
    outer loop
      vertex 95 10 175
      vertex 87 12 175
      vertex 95 12 175
    endloop
  endfacet
  facet normal 0 -1 0
    outer loop
      vertex 4 5 175
      vertex 10 5 190
      vertex 4 5 190
    endloop
  endfacet
  facet normal 0 -1 -0
    outer loop
      vertex 10 5 190
      vertex 4 5 175
      vertex 10 5 175
    endloop
  endfacet
  facet normal -1 0 0
    outer loop
      vertex 1 10 175
      vertex 1 90 190
      vertex 1 90 175
    endloop
  endfacet
  facet normal -1 -0 0
    outer loop
      vertex 1 90 190
      vertex 1 10 175
      vertex 1 10 190
    endloop
  endfacet
  facet normal -1 0 0
    outer loop
      vertex 5 90 180
      vertex 5 95 190
      vertex 5 95 180
    endloop
  endfacet
  facet normal -1 -0 0
    outer loop
      vertex 5 95 190
      vertex 5 90 180
      vertex 5 90 190
    endloop
  endfacet
  facet normal 1 -0 0
    outer loop
      vertex 5 13 180
      vertex 5 90 175
      vertex 5 90 180
    endloop
  endfacet
  facet normal 1 0 0
    outer loop
      vertex 5 90 175
      vertex 5 13 180
      vertex 5 13 175
    endloop
  endfacet
  facet normal 0 -1 0
    outer loop
      vertex 1 10 175
      vertex 4 10 190
      vertex 1 10 190
    endloop
  endfacet
  facet normal 0 -1 -0
    outer loop
      vertex 4 10 190
      vertex 1 10 175
      vertex 4 10 175
    endloop
  endfacet
  facet normal 0 1 -0
    outer loop
      vertex 5 90 180
      vertex 1 90 190
      vertex 5 90 190
    endloop
  endfacet
  facet normal 0 1 0
    outer loop
      vertex 1 90 175
      vertex 5 90 180
      vertex 5 90 175
    endloop
  endfacet
  facet normal 0 1 0
    outer loop
      vertex 5 90 180
      vertex 1 90 175
      vertex 1 90 190
    endloop
  endfacet
  facet normal 0 1 -0
    outer loop
      vertex 10 96 175
      vertex 5 96 190
      vertex 10 96 190
    endloop
  endfacet
  facet normal 0 1 0
    outer loop
      vertex 5 96 190
      vertex 10 96 175
      vertex 5 96 175
    endloop
  endfacet
  facet normal 0 -1 0
    outer loop
      vertex 5 88 175
      vertex 13 88 180
      vertex 5 88 180
    endloop
  endfacet
  facet normal 0 -1 -0
    outer loop
      vertex 13 88 180
      vertex 5 88 175
      vertex 13 88 175
    endloop
  endfacet
  facet normal 1 -0 0
    outer loop
      vertex 13 88 180
      vertex 13 95 175
      vertex 13 95 180
    endloop
  endfacet
  facet normal 1 0 0
    outer loop
      vertex 13 95 175
      vertex 13 88 180
      vertex 13 88 175
    endloop
  endfacet
  facet normal 0 -0 0
    outer loop
      vertex 13 95 180
      vertex 13 95 175
      vertex 13 95 190
    endloop
  endfacet
  facet normal 0 0 -1
    outer loop
      vertex 13 88 175
      vertex 10 96 175
      vertex 13 95 175
    endloop
  endfacet
  facet normal 0 0 -1
    outer loop
      vertex 5 88 175
      vertex 10 96 175
      vertex 13 88 175
    endloop
  endfacet
  facet normal -0 0 -1
    outer loop
      vertex 10 96 175
      vertex 5 88 175
      vertex 5 96 175
    endloop
  endfacet
  facet normal 0 0 -1
    outer loop
      vertex 13 95 175
      vertex 90 99 175
      vertex 90 95 175
    endloop
  endfacet
  facet normal 0 0 -1
    outer loop
      vertex 10 99 175
      vertex 13 95 175
      vertex 10 96 175
    endloop
  endfacet
  facet normal 0 0 -1
    outer loop
      vertex 13 95 175
      vertex 10 99 175
      vertex 90 99 175
    endloop
  endfacet
  facet normal -1 0 0
    outer loop
      vertex 5 96 175
      vertex 5 95 180
      vertex 5 96 190
    endloop
  endfacet
  facet normal -1 0 0
    outer loop
      vertex 5 88 175
      vertex 5 95 180
      vertex 5 96 175
    endloop
  endfacet
  facet normal -1 -0 0
    outer loop
      vertex 5 95 180
      vertex 5 88 175
      vertex 5 88 180
    endloop
  endfacet
  facet normal -1 -0 0
    outer loop
      vertex 5 96 190
      vertex 5 95 180
      vertex 5 95 190
    endloop
  endfacet
  facet normal 0 1 -0
    outer loop
      vertex 90 99 175
      vertex 10 99 190
      vertex 90 99 190
    endloop
  endfacet
  facet normal 0 1 0
    outer loop
      vertex 10 99 190
      vertex 90 99 175
      vertex 10 99 175
    endloop
  endfacet
  facet normal 0 -1 0
    outer loop
      vertex 13 95 175
      vertex 90 95 190
      vertex 13 95 190
    endloop
  endfacet
  facet normal 0 -1 -0
    outer loop
      vertex 90 95 190
      vertex 13 95 175
      vertex 90 95 175
    endloop
  endfacet
  facet normal -1 0 0
    outer loop
      vertex 10 96 175
      vertex 10 99 190
      vertex 10 99 175
    endloop
  endfacet
  facet normal -1 -0 0
    outer loop
      vertex 10 99 190
      vertex 10 96 175
      vertex 10 96 190
    endloop
  endfacet
  facet normal 1 -0 0
    outer loop
      vertex 90 95 190
      vertex 90 99 175
      vertex 90 99 190
    endloop
  endfacet
  facet normal 1 0 0
    outer loop
      vertex 90 99 175
      vertex 90 95 190
      vertex 90 95 175
    endloop
  endfacet
  facet normal 0 -1 0
    outer loop
      vertex 90 4 175
      vertex 95 4 190
      vertex 90 4 190
    endloop
  endfacet
  facet normal 0 -1 -0
    outer loop
      vertex 95 4 190
      vertex 90 4 175
      vertex 95 4 175
    endloop
  endfacet
  facet normal 0 1 -0
    outer loop
      vertex 95 12 175
      vertex 87 12 180
      vertex 95 12 180
    endloop
  endfacet
  facet normal 0 1 0
    outer loop
      vertex 87 12 180
      vertex 95 12 175
      vertex 87 12 175
    endloop
  endfacet
  facet normal -1 0 0
    outer loop
      vertex 87 5 175
      vertex 87 12 180
      vertex 87 12 175
    endloop
  endfacet
  facet normal -1 -0 0
    outer loop
      vertex 87 12 180
      vertex 87 5 175
      vertex 87 5 180
    endloop
  endfacet
  facet normal 1 -0 0
    outer loop
      vertex 95 4 190
      vertex 95 10 175
      vertex 95 10 190
    endloop
  endfacet
  facet normal 1 0 0
    outer loop
      vertex 95 10 175
      vertex 95 4 190
      vertex 95 4 175
    endloop
  endfacet
  facet normal 0 -1 0
    outer loop
      vertex 10 1 175
      vertex 90 1 190
      vertex 10 1 190
    endloop
  endfacet
  facet normal 0 -1 -0
    outer loop
      vertex 90 1 190
      vertex 10 1 175
      vertex 90 1 175
    endloop
  endfacet
  facet normal 0 1 -0
    outer loop
      vertex 87 5 175
      vertex 12 5 180
      vertex 87 5 180
    endloop
  endfacet
  facet normal 0 1 0
    outer loop
      vertex 12 5 180
      vertex 87 5 175
      vertex 12 5 175
    endloop
  endfacet
  facet normal 1 -0 0
    outer loop
      vertex 90 1 190
      vertex 90 4 175
      vertex 90 4 190
    endloop
  endfacet
  facet normal 1 0 0
    outer loop
      vertex 90 4 175
      vertex 90 1 190
      vertex 90 1 175
    endloop
  endfacet
  facet normal -1 0 0
    outer loop
      vertex 10 1 175
      vertex 10 5 190
      vertex 10 5 175
    endloop
  endfacet
  facet normal -1 -0 0
    outer loop
      vertex 10 5 190
      vertex 10 1 175
      vertex 10 1 190
    endloop
  endfacet
  facet normal 1 -0 0
    outer loop
      vertex 96 90 190
      vertex 96 95 175
      vertex 96 95 190
    endloop
  endfacet
  facet normal 1 0 0
    outer loop
      vertex 96 95 175
      vertex 96 90 190
      vertex 96 90 175
    endloop
  endfacet
  facet normal -1 0 0
    outer loop
      vertex 88 87 175
      vertex 88 95 180
      vertex 88 95 175
    endloop
  endfacet
  facet normal -1 -0 0
    outer loop
      vertex 88 95 180
      vertex 88 87 175
      vertex 88 87 180
    endloop
  endfacet
  facet normal 0 0 0
    outer loop
      vertex 88 95 190
      vertex 88 95 175
      vertex 88 95 180
    endloop
  endfacet
  facet normal 0 -1 0
    outer loop
      vertex 88 87 175
      vertex 95 87 180
      vertex 88 87 180
    endloop
  endfacet
  facet normal 0 -1 -0
    outer loop
      vertex 95 87 180
      vertex 88 87 175
      vertex 95 87 175
    endloop
  endfacet
  facet normal 0 1 -0
    outer loop
      vertex 96 95 175
      vertex 88 95 190
      vertex 96 95 190
    endloop
  endfacet
  facet normal 0 1 0
    outer loop
      vertex 88 95 190
      vertex 96 95 175
      vertex 88 95 175
    endloop
  endfacet
  facet normal 1 -0 0
    outer loop
      vertex 99 10 190
      vertex 99 90 175
      vertex 99 90 190
    endloop
  endfacet
  facet normal 1 0 0
    outer loop
      vertex 99 90 175
      vertex 99 10 190
      vertex 99 10 175
    endloop
  endfacet
  facet normal -1 0 0
    outer loop
      vertex 95 12 175
      vertex 95 87 180
      vertex 95 87 175
    endloop
  endfacet
  facet normal -1 -0 0
    outer loop
      vertex 95 87 180
      vertex 95 12 175
      vertex 95 12 180
    endloop
  endfacet
  facet normal 0 1 -0
    outer loop
      vertex 99 90 175
      vertex 96 90 190
      vertex 99 90 190
    endloop
  endfacet
  facet normal 0 1 0
    outer loop
      vertex 96 90 190
      vertex 99 90 175
      vertex 96 90 175
    endloop
  endfacet
  facet normal 0 -1 0
    outer loop
      vertex 95 10 175
      vertex 99 10 190
      vertex 95 10 190
    endloop
  endfacet
  facet normal 0 -1 -0
    outer loop
      vertex 99 10 190
      vertex 95 10 175
      vertex 99 10 175
    endloop
  endfacet
  facet normal 0 0 -1
    outer loop
      vertex 12 5 180
      vertex 87 12 180
      vertex 87 5 180
    endloop
  endfacet
  facet normal -0 0 -1
    outer loop
      vertex 87 12 180
      vertex 12 5 180
      vertex 12 13 180
    endloop
  endfacet
  facet normal 0 0 -1
    outer loop
      vertex 87 12 180
      vertex 12 13 180
      vertex 13 88 180
    endloop
  endfacet
  facet normal 0 0 -1
    outer loop
      vertex 5 88 180
      vertex 12 13 180
      vertex 5 13 180
    endloop
  endfacet
  facet normal 0 0 -1
    outer loop
      vertex 12 13 180
      vertex 5 88 180
      vertex 13 88 180
    endloop
  endfacet
  facet normal 0 0 -1
    outer loop
      vertex 95 12 180
      vertex 88 87 180
      vertex 95 87 180
    endloop
  endfacet
  facet normal 0 0 -1
    outer loop
      vertex 87 12 180
      vertex 88 87 180
      vertex 95 12 180
    endloop
  endfacet
  facet normal 0 0 -1
    outer loop
      vertex 13 88 180
      vertex 88 87 180
      vertex 87 12 180
    endloop
  endfacet
  facet normal 0 0 -1
    outer loop
      vertex 88 87 180
      vertex 13 88 180
      vertex 88 95 180
    endloop
  endfacet
  facet normal -0 0 -1
    outer loop
      vertex 88 95 180
      vertex 13 88 180
      vertex 13 95 180
    endloop
  endfacet
  facet normal -0 0 0
    outer loop
      vertex 5 88 180
      vertex 5 13 180
      vertex 5 90 180
    endloop
  endfacet
  facet normal 0 0 0
    outer loop
      vertex 5 88 180
      vertex 5 90 180
      vertex 5 95 180
    endloop
  endfacet
  facet normal 0 1 -0
    outer loop
      vertex 88 95 180
      vertex 13 95 190
      vertex 88 95 190
    endloop
  endfacet
  facet normal 0 1 0
    outer loop
      vertex 13 95 190
      vertex 88 95 180
      vertex 13 95 180
    endloop
  endfacet
  facet normal -1 0 0
    outer loop
      vertex 10 10 190
      vertex 10 90 200
      vertex 10 90 190
    endloop
  endfacet
  facet normal -1 -0 0
    outer loop
      vertex 10 90 200
      vertex 10 10 190
      vertex 10 10 200
    endloop
  endfacet
  facet normal 1 -0 0
    outer loop
      vertex 90 10 200
      vertex 90 90 190
      vertex 90 90 200
    endloop
  endfacet
  facet normal 1 0 0
    outer loop
      vertex 90 90 190
      vertex 90 10 200
      vertex 90 10 190
    endloop
  endfacet
  facet normal 0 1 -0
    outer loop
      vertex 90 90 190
      vertex 10 90 200
      vertex 90 90 200
    endloop
  endfacet
  facet normal 0 1 0
    outer loop
      vertex 10 90 200
      vertex 90 90 190
      vertex 10 90 190
    endloop
  endfacet
  facet normal 0 -1 0
    outer loop
      vertex 10 10 190
      vertex 90 10 200
      vertex 10 10 200
    endloop
  endfacet
  facet normal 0 -1 -0
    outer loop
      vertex 90 10 200
      vertex 10 10 190
      vertex 90 10 190
    endloop
  endfacet
  facet normal 0.242536 0 0.970143
    outer loop
      vertex 90 90 200
      vertex 55 50 208.75
      vertex 90 10 200
    endloop
  endfacet
  facet normal 0.242536 0 0.970143
    outer loop
      vertex 90 90 200
      vertex 54.9606 50.6267 208.76
      vertex 55 50 208.75
    endloop
  endfacet
  facet normal 0.242542 -6.17629e-06 0.970141
    outer loop
      vertex 90 90 200
      vertex 54.8429 51.2435 208.789
      vertex 54.9606 50.6267 208.76
    endloop
  endfacet
  facet normal 0.242535 1.17219e-06 0.970143
    outer loop
      vertex 90 90 200
      vertex 54.6489 51.8406 208.838
      vertex 54.8429 51.2435 208.789
    endloop
  endfacet
  facet normal 0.242531 4.35234e-06 0.970144
    outer loop
      vertex 90 90 200
      vertex 54.3815 52.4088 208.905
      vertex 54.6489 51.8406 208.838
    endloop
  endfacet
  facet normal 0.24253 5.22572e-06 0.970144
    outer loop
      vertex 90 90 200
      vertex 54.0451 52.9389 208.989
      vertex 54.3815 52.4088 208.905
    endloop
  endfacet
  facet normal 0.242543 -7.28261e-06 0.970141
    outer loop
      vertex 90 90 200
      vertex 53.6448 53.4227 209.089
      vertex 54.0451 52.9389 208.989
    endloop
  endfacet
  facet normal 0.242555 -2.07361e-05 0.970138
    outer loop
      vertex 53.6448 53.4227 209.089
      vertex 90 90 200
      vertex 53.5303 53.5303 209.117
    endloop
  endfacet
  facet normal 0.242536 0 0.970143
    outer loop
      vertex 54.9606 49.3733 208.76
      vertex 90 10 200
      vertex 55 50 208.75
    endloop
  endfacet
  facet normal 0.242542 6.17629e-06 0.970141
    outer loop
      vertex 54.8429 48.7565 208.789
      vertex 90 10 200
      vertex 54.9606 49.3733 208.76
    endloop
  endfacet
  facet normal 0.242535 -1.17219e-06 0.970143
    outer loop
      vertex 54.6489 48.1594 208.838
      vertex 90 10 200
      vertex 54.8429 48.7565 208.789
    endloop
  endfacet
  facet normal 0.242531 -4.35234e-06 0.970144
    outer loop
      vertex 54.3815 47.5912 208.905
      vertex 90 10 200
      vertex 54.6489 48.1594 208.838
    endloop
  endfacet
  facet normal 0.24253 -5.22572e-06 0.970144
    outer loop
      vertex 54.0451 47.0611 208.989
      vertex 90 10 200
      vertex 54.3815 47.5912 208.905
    endloop
  endfacet
  facet normal 0.242543 7.28261e-06 0.970141
    outer loop
      vertex 53.6448 46.5773 209.089
      vertex 90 10 200
      vertex 54.0451 47.0611 208.989
    endloop
  endfacet
  facet normal 0.242555 2.07361e-05 0.970138
    outer loop
      vertex 90 10 200
      vertex 53.6448 46.5773 209.089
      vertex 53.5303 46.4697 209.117
    endloop
  endfacet
  facet normal 8.60007e-08 -0.242536 0.970142
    outer loop
      vertex 53.1871 46.1474 209.037
      vertex 90 10 200
      vertex 53.5303 46.4697 209.117
    endloop
  endfacet
  facet normal -9.71963e-07 -0.242537 0.970142
    outer loop
      vertex 52.6791 45.7784 208.945
      vertex 90 10 200
      vertex 53.1871 46.1474 209.037
    endloop
  endfacet
  facet normal 1.12285e-06 -0.242535 0.970143
    outer loop
      vertex 52.1289 45.4759 208.869
      vertex 90 10 200
      vertex 52.6791 45.7784 208.945
    endloop
  endfacet
  facet normal -1.55443e-05 -0.242551 0.970139
    outer loop
      vertex 51.5451 45.2447 208.811
      vertex 90 10 200
      vertex 52.1289 45.4759 208.869
    endloop
  endfacet
  facet normal 8.28161e-06 -0.242527 0.970145
    outer loop
      vertex 50.9369 45.0886 208.772
      vertex 90 10 200
      vertex 51.5451 45.2447 208.811
    endloop
  endfacet
  facet normal 7.81241e-06 -0.242527 0.970145
    outer loop
      vertex 50.314 45.0099 208.752
      vertex 90 10 200
      vertex 50.9369 45.0886 208.772
    endloop
  endfacet
  facet normal 0 -0.242536 0.970142
    outer loop
      vertex 49.686 45.0099 208.752
      vertex 90 10 200
      vertex 50.314 45.0099 208.752
    endloop
  endfacet
  facet normal -7.81241e-06 -0.242527 0.970145
    outer loop
      vertex 10 10 200
      vertex 49.686 45.0099 208.752
      vertex 49.0631 45.0886 208.772
    endloop
  endfacet
  facet normal -8.28161e-06 -0.242527 0.970145
    outer loop
      vertex 10 10 200
      vertex 49.0631 45.0886 208.772
      vertex 48.4549 45.2447 208.811
    endloop
  endfacet
  facet normal 1.55443e-05 -0.242551 0.970139
    outer loop
      vertex 10 10 200
      vertex 48.4549 45.2447 208.811
      vertex 47.8711 45.4759 208.869
    endloop
  endfacet
  facet normal -1.12285e-06 -0.242535 0.970143
    outer loop
      vertex 10 10 200
      vertex 47.8711 45.4759 208.869
      vertex 47.3209 45.7784 208.945
    endloop
  endfacet
  facet normal 9.71963e-07 -0.242537 0.970142
    outer loop
      vertex 10 10 200
      vertex 47.3209 45.7784 208.945
      vertex 46.8129 46.1474 209.037
    endloop
  endfacet
  facet normal 0 -0.242536 0.970142
    outer loop
      vertex 49.686 45.0099 208.752
      vertex 10 10 200
      vertex 90 10 200
    endloop
  endfacet
  facet normal -8.60007e-08 -0.242536 0.970142
    outer loop
      vertex 10 10 200
      vertex 46.8129 46.1474 209.037
      vertex 46.4697 46.4697 209.117
    endloop
  endfacet
  facet normal 8.60007e-08 0.242536 0.970142
    outer loop
      vertex 90 90 200
      vertex 53.1871 53.8526 209.037
      vertex 53.5303 53.5303 209.117
    endloop
  endfacet
  facet normal -2.01875e-06 0.242538 0.970142
    outer loop
      vertex 90 90 200
      vertex 52.6791 54.2216 208.945
      vertex 53.1871 53.8526 209.037
    endloop
  endfacet
  facet normal 2.18244e-06 0.242534 0.970143
    outer loop
      vertex 90 90 200
      vertex 52.1289 54.5241 208.869
      vertex 52.6791 54.2216 208.945
    endloop
  endfacet
  facet normal -1.55443e-05 0.242551 0.970139
    outer loop
      vertex 90 90 200
      vertex 51.5451 54.7553 208.811
      vertex 52.1289 54.5241 208.869
    endloop
  endfacet
  facet normal 8.28161e-06 0.242527 0.970145
    outer loop
      vertex 90 90 200
      vertex 50.9369 54.9114 208.772
      vertex 51.5451 54.7553 208.811
    endloop
  endfacet
  facet normal 7.81241e-06 0.242527 0.970145
    outer loop
      vertex 90 90 200
      vertex 50.314 54.9901 208.752
      vertex 50.9369 54.9114 208.772
    endloop
  endfacet
  facet normal 0 0.242536 0.970142
    outer loop
      vertex 90 90 200
      vertex 49.686 54.9901 208.752
      vertex 50.314 54.9901 208.752
    endloop
  endfacet
  facet normal -0 0.242536 0.970142
    outer loop
      vertex 10 90 200
      vertex 49.686 54.9901 208.752
      vertex 90 90 200
    endloop
  endfacet
  facet normal -7.81241e-06 0.242527 0.970145
    outer loop
      vertex 49.686 54.9901 208.752
      vertex 10 90 200
      vertex 49.0631 54.9114 208.772
    endloop
  endfacet
  facet normal -8.28161e-06 0.242527 0.970145
    outer loop
      vertex 49.0631 54.9114 208.772
      vertex 10 90 200
      vertex 48.4549 54.7553 208.811
    endloop
  endfacet
  facet normal 1.55443e-05 0.242551 0.970139
    outer loop
      vertex 48.4549 54.7553 208.811
      vertex 10 90 200
      vertex 47.8711 54.5241 208.869
    endloop
  endfacet
  facet normal -2.18245e-06 0.242534 0.970143
    outer loop
      vertex 47.8711 54.5241 208.869
      vertex 10 90 200
      vertex 47.3209 54.2216 208.945
    endloop
  endfacet
  facet normal -8.60007e-08 0.242536 0.970142
    outer loop
      vertex 46.8129 53.8526 209.037
      vertex 10 90 200
      vertex 46.4697 53.5303 209.117
    endloop
  endfacet
  facet normal 2.01875e-06 0.242538 0.970142
    outer loop
      vertex 47.3209 54.2216 208.945
      vertex 10 90 200
      vertex 46.8129 53.8526 209.037
    endloop
  endfacet
  facet normal -0.242537 -1.37735e-06 0.970142
    outer loop
      vertex 45.0394 50.6267 208.76
      vertex 10 90 200
      vertex 45 50 208.75
    endloop
  endfacet
  facet normal -0.242542 -6.17214e-06 0.970141
    outer loop
      vertex 45.1571 51.2435 208.789
      vertex 10 90 200
      vertex 45.0394 50.6267 208.76
    endloop
  endfacet
  facet normal -0.242535 1.17849e-06 0.970143
    outer loop
      vertex 45.3511 51.8406 208.838
      vertex 10 90 200
      vertex 45.1571 51.2435 208.789
    endloop
  endfacet
  facet normal -0.242531 4.36051e-06 0.970144
    outer loop
      vertex 45.6185 52.4088 208.905
      vertex 10 90 200
      vertex 45.3511 51.8406 208.838
    endloop
  endfacet
  facet normal -0.242529 6.28071e-06 0.970144
    outer loop
      vertex 45.9549 52.9389 208.989
      vertex 10 90 200
      vertex 45.6185 52.4088 208.905
    endloop
  endfacet
  facet normal -0.242543 -7.28261e-06 0.970141
    outer loop
      vertex 46.3552 53.4227 209.089
      vertex 10 90 200
      vertex 45.9549 52.9389 208.989
    endloop
  endfacet
  facet normal -0.242555 -2.07361e-05 0.970138
    outer loop
      vertex 10 90 200
      vertex 46.3552 53.4227 209.089
      vertex 46.4697 53.5303 209.117
    endloop
  endfacet
  facet normal -0.242536 0 0.970143
    outer loop
      vertex 10 10 200
      vertex 45 50 208.75
      vertex 10 90 200
    endloop
  endfacet
  facet normal -0.242537 1.37735e-06 0.970142
    outer loop
      vertex 45 50 208.75
      vertex 10 10 200
      vertex 45.0394 49.3733 208.76
    endloop
  endfacet
  facet normal -0.242542 6.17214e-06 0.970141
    outer loop
      vertex 45.0394 49.3733 208.76
      vertex 10 10 200
      vertex 45.1571 48.7565 208.789
    endloop
  endfacet
  facet normal -0.242535 -1.17849e-06 0.970143
    outer loop
      vertex 45.1571 48.7565 208.789
      vertex 10 10 200
      vertex 45.3511 48.1594 208.838
    endloop
  endfacet
  facet normal -0.242531 -4.36051e-06 0.970144
    outer loop
      vertex 45.3511 48.1594 208.838
      vertex 10 10 200
      vertex 45.6185 47.5912 208.905
    endloop
  endfacet
  facet normal -0.242529 -6.28071e-06 0.970144
    outer loop
      vertex 45.6185 47.5912 208.905
      vertex 10 10 200
      vertex 45.9549 47.0611 208.989
    endloop
  endfacet
  facet normal -0.242555 2.07361e-05 0.970138
    outer loop
      vertex 46.3552 46.5773 209.089
      vertex 10 10 200
      vertex 46.4697 46.4697 209.117
    endloop
  endfacet
  facet normal -0.242543 7.28261e-06 0.970141
    outer loop
      vertex 45.9549 47.0611 208.989
      vertex 10 10 200
      vertex 46.3552 46.5773 209.089
    endloop
  endfacet
  facet normal 0.998027 0.062794 0
    outer loop
      vertex 55 50 215
      vertex 54.9606 50.6267 208.76
      vertex 54.9606 50.6267 215
    endloop
  endfacet
  facet normal 0.998027 0.062794 0
    outer loop
      vertex 54.9606 50.6267 208.76
      vertex 55 50 215
      vertex 55 50 208.75
    endloop
  endfacet
  facet normal -0.125333 0.992115 0
    outer loop
      vertex 49.686 54.9901 215
      vertex 49.0631 54.9114 208.772
      vertex 49.0631 54.9114 215
    endloop
  endfacet
  facet normal -0.125333 0.992115 0
    outer loop
      vertex 49.0631 54.9114 208.772
      vertex 49.686 54.9901 215
      vertex 49.686 54.9901 208.752
    endloop
  endfacet
  facet normal 0.125333 -0.992115 0
    outer loop
      vertex 50.314 45.0099 215
      vertex 50.9369 45.0886 208.772
      vertex 50.9369 45.0886 215
    endloop
  endfacet
  facet normal 0.125333 -0.992115 0
    outer loop
      vertex 50.9369 45.0886 208.772
      vertex 50.314 45.0099 215
      vertex 50.314 45.0099 208.752
    endloop
  endfacet
  facet normal 0.684544 0.728972 2.2657e-08
    outer loop
      vertex 53.6448 53.4227 215
      vertex 53.5303 53.5303 209.117
      vertex 53.1871 53.8526 215
    endloop
  endfacet
  facet normal 0.684544 0.728971 0
    outer loop
      vertex 53.5303 53.5303 209.117
      vertex 53.6448 53.4227 215
      vertex 53.6448 53.4227 209.089
    endloop
  endfacet
  facet normal 0.684543 0.728972 0
    outer loop
      vertex 53.1871 53.8526 215
      vertex 53.5303 53.5303 209.117
      vertex 53.1871 53.8526 209.037
    endloop
  endfacet
  facet normal -0.770514 0.637423 0
    outer loop
      vertex 45.9549 52.9389 215
      vertex 46.3552 53.4227 209.089
      vertex 45.9549 52.9389 208.989
    endloop
  endfacet
  facet normal -0.770514 0.637423 0
    outer loop
      vertex 46.3552 53.4227 209.089
      vertex 45.9549 52.9389 215
      vertex 46.3552 53.4227 215
    endloop
  endfacet
  facet normal -0.481758 0.876305 0
    outer loop
      vertex 47.8711 54.5241 215
      vertex 47.3209 54.2216 208.945
      vertex 47.3209 54.2216 215
    endloop
  endfacet
  facet normal -0.481758 0.876305 0
    outer loop
      vertex 47.3209 54.2216 208.945
      vertex 47.8711 54.5241 215
      vertex 47.8711 54.5241 208.869
    endloop
  endfacet
  facet normal 0.904827 0.425779 0
    outer loop
      vertex 54.6489 51.8406 215
      vertex 54.3815 52.4088 208.905
      vertex 54.3815 52.4088 215
    endloop
  endfacet
  facet normal 0.904827 0.425779 0
    outer loop
      vertex 54.3815 52.4088 208.905
      vertex 54.6489 51.8406 215
      vertex 54.6489 51.8406 208.838
    endloop
  endfacet
  facet normal 0.982288 0.18738 0
    outer loop
      vertex 54.9606 50.6267 215
      vertex 54.8429 51.2435 208.789
      vertex 54.8429 51.2435 215
    endloop
  endfacet
  facet normal 0.982288 0.18738 0
    outer loop
      vertex 54.8429 51.2435 208.789
      vertex 54.9606 50.6267 215
      vertex 54.9606 50.6267 208.76
    endloop
  endfacet
  facet normal 0.368127 0.929776 -0
    outer loop
      vertex 52.1289 54.5241 208.869
      vertex 51.5451 54.7553 215
      vertex 52.1289 54.5241 215
    endloop
  endfacet
  facet normal 0.368127 0.929776 0
    outer loop
      vertex 51.5451 54.7553 215
      vertex 52.1289 54.5241 208.869
      vertex 51.5451 54.7553 208.811
    endloop
  endfacet
  facet normal 0.481755 0.876306 -0
    outer loop
      vertex 52.6791 54.2216 208.945
      vertex 52.1289 54.5241 215
      vertex 52.6791 54.2216 215
    endloop
  endfacet
  facet normal 0.481755 0.876306 0
    outer loop
      vertex 52.1289 54.5241 215
      vertex 52.6791 54.2216 208.945
      vertex 52.1289 54.5241 208.869
    endloop
  endfacet
  facet normal -0.951056 0.309019 0
    outer loop
      vertex 45.1571 51.2435 215
      vertex 45.3511 51.8406 208.838
      vertex 45.1571 51.2435 208.789
    endloop
  endfacet
  facet normal -0.951056 0.309019 0
    outer loop
      vertex 45.3511 51.8406 208.838
      vertex 45.1571 51.2435 215
      vertex 45.3511 51.8406 215
    endloop
  endfacet
  facet normal -0.904827 0.425779 0
    outer loop
      vertex 45.3511 51.8406 215
      vertex 45.6185 52.4088 208.905
      vertex 45.3511 51.8406 208.838
    endloop
  endfacet
  facet normal -0.904827 0.425779 0
    outer loop
      vertex 45.6185 52.4088 208.905
      vertex 45.3511 51.8406 215
      vertex 45.6185 52.4088 215
    endloop
  endfacet
  facet normal -0.982288 0.18738 0
    outer loop
      vertex 45.0394 50.6267 215
      vertex 45.1571 51.2435 208.789
      vertex 45.0394 50.6267 208.76
    endloop
  endfacet
  facet normal -0.982288 0.18738 0
    outer loop
      vertex 45.1571 51.2435 208.789
      vertex 45.0394 50.6267 215
      vertex 45.1571 51.2435 215
    endloop
  endfacet
  facet normal -0.684544 0.728972 2.2657e-08
    outer loop
      vertex 46.8129 53.8526 215
      vertex 46.4697 53.5303 209.117
      vertex 46.3552 53.4227 215
    endloop
  endfacet
  facet normal -0.684543 0.728972 0
    outer loop
      vertex 46.4697 53.5303 209.117
      vertex 46.8129 53.8526 215
      vertex 46.8129 53.8526 209.037
    endloop
  endfacet
  facet normal -0.684544 0.728971 0
    outer loop
      vertex 46.3552 53.4227 215
      vertex 46.4697 53.5303 209.117
      vertex 46.3552 53.4227 209.089
    endloop
  endfacet
  facet normal -0.24869 0.968583 0
    outer loop
      vertex 49.0631 54.9114 215
      vertex 48.4549 54.7553 208.811
      vertex 48.4549 54.7553 215
    endloop
  endfacet
  facet normal -0.24869 0.968583 0
    outer loop
      vertex 48.4549 54.7553 208.811
      vertex 49.0631 54.9114 215
      vertex 49.0631 54.9114 208.772
    endloop
  endfacet
  facet normal 0.24869 -0.968583 0
    outer loop
      vertex 50.9369 45.0886 215
      vertex 51.5451 45.2447 208.811
      vertex 51.5451 45.2447 215
    endloop
  endfacet
  facet normal 0.24869 -0.968583 0
    outer loop
      vertex 51.5451 45.2447 208.811
      vertex 50.9369 45.0886 215
      vertex 50.9369 45.0886 208.772
    endloop
  endfacet
  facet normal 0.951056 0.309019 0
    outer loop
      vertex 54.8429 51.2435 215
      vertex 54.6489 51.8406 208.838
      vertex 54.6489 51.8406 215
    endloop
  endfacet
  facet normal 0.951056 0.309019 0
    outer loop
      vertex 54.6489 51.8406 208.838
      vertex 54.8429 51.2435 215
      vertex 54.8429 51.2435 208.789
    endloop
  endfacet
  facet normal 0.770514 0.637423 0
    outer loop
      vertex 54.0451 52.9389 215
      vertex 53.6448 53.4227 209.089
      vertex 53.6448 53.4227 215
    endloop
  endfacet
  facet normal 0.770514 0.637423 0
    outer loop
      vertex 53.6448 53.4227 209.089
      vertex 54.0451 52.9389 215
      vertex 54.0451 52.9389 208.989
    endloop
  endfacet
  facet normal 0.844331 0.535822 0
    outer loop
      vertex 54.3815 52.4088 215
      vertex 54.0451 52.9389 208.989
      vertex 54.0451 52.9389 215
    endloop
  endfacet
  facet normal 0.844331 0.535822 0
    outer loop
      vertex 54.0451 52.9389 208.989
      vertex 54.3815 52.4088 215
      vertex 54.3815 52.4088 208.905
    endloop
  endfacet
  facet normal 0.125333 0.992115 -0
    outer loop
      vertex 50.9369 54.9114 208.772
      vertex 50.314 54.9901 215
      vertex 50.9369 54.9114 215
    endloop
  endfacet
  facet normal 0.125333 0.992115 0
    outer loop
      vertex 50.314 54.9901 215
      vertex 50.9369 54.9114 208.772
      vertex 50.314 54.9901 208.752
    endloop
  endfacet
  facet normal 0.24869 0.968583 -0
    outer loop
      vertex 51.5451 54.7553 208.811
      vertex 50.9369 54.9114 215
      vertex 51.5451 54.7553 215
    endloop
  endfacet
  facet normal 0.24869 0.968583 0
    outer loop
      vertex 50.9369 54.9114 215
      vertex 51.5451 54.7553 208.811
      vertex 50.9369 54.9114 208.772
    endloop
  endfacet
  facet normal 0 1 -0
    outer loop
      vertex 50.314 54.9901 208.752
      vertex 49.686 54.9901 215
      vertex 50.314 54.9901 215
    endloop
  endfacet
  facet normal 0 1 0
    outer loop
      vertex 49.686 54.9901 215
      vertex 50.314 54.9901 208.752
      vertex 49.686 54.9901 208.752
    endloop
  endfacet
  facet normal 0.587785 0.809017 -0
    outer loop
      vertex 53.1871 53.8526 209.037
      vertex 52.6791 54.2216 215
      vertex 53.1871 53.8526 215
    endloop
  endfacet
  facet normal 0.587785 0.809017 0
    outer loop
      vertex 52.6791 54.2216 215
      vertex 53.1871 53.8526 209.037
      vertex 52.6791 54.2216 208.945
    endloop
  endfacet
  facet normal -0.844328 0.535826 0
    outer loop
      vertex 45.6185 52.4088 215
      vertex 45.9549 52.9389 208.989
      vertex 45.6185 52.4088 208.905
    endloop
  endfacet
  facet normal -0.844328 0.535826 0
    outer loop
      vertex 45.9549 52.9389 208.989
      vertex 45.6185 52.4088 215
      vertex 45.9549 52.9389 215
    endloop
  endfacet
  facet normal -0.998027 0.0627879 0
    outer loop
      vertex 45 50 215
      vertex 45.0394 50.6267 208.76
      vertex 45 50 208.75
    endloop
  endfacet
  facet normal -0.998027 0.0627879 0
    outer loop
      vertex 45.0394 50.6267 208.76
      vertex 45 50 215
      vertex 45.0394 50.6267 215
    endloop
  endfacet
  facet normal 0 0 -1
    outer loop
      vertex 55 50 215
      vertex 56 50 215
      vertex 55.9527 49.248 215
    endloop
  endfacet
  facet normal 0 0 -1
    outer loop
      vertex 54.9606 49.3733 215
      vertex 55.9527 49.248 215
      vertex 55.8115 48.5079 215
    endloop
  endfacet
  facet normal 0 0 -1
    outer loop
      vertex 56 50 215
      vertex 55 50 215
      vertex 55.9527 50.752 215
    endloop
  endfacet
  facet normal 0 0 -1
    outer loop
      vertex 54.8429 48.7565 215
      vertex 55.8115 48.5079 215
      vertex 55.5787 47.7913 215
    endloop
  endfacet
  facet normal 0 0 -1
    outer loop
      vertex 54.9606 50.6267 215
      vertex 55.9527 50.752 215
      vertex 55 50 215
    endloop
  endfacet
  facet normal 0 0 -1
    outer loop
      vertex 54.6489 48.1594 215
      vertex 55.5787 47.7913 215
      vertex 55.2578 47.1095 215
    endloop
  endfacet
  facet normal -0 0 -1
    outer loop
      vertex 55.9527 50.752 215
      vertex 54.9606 50.6267 215
      vertex 55.8115 51.4921 215
    endloop
  endfacet
  facet normal 0 0 -1
    outer loop
      vertex 54.8429 51.2435 215
      vertex 55.8115 51.4921 215
      vertex 54.9606 50.6267 215
    endloop
  endfacet
  facet normal 0 0 -1
    outer loop
      vertex 55.9527 49.248 215
      vertex 54.9606 49.3733 215
      vertex 55 50 215
    endloop
  endfacet
  facet normal 0 0 -1
    outer loop
      vertex 54.3815 47.5912 215
      vertex 55.2578 47.1095 215
      vertex 54.8541 46.4733 215
    endloop
  endfacet
  facet normal 0 0 -1
    outer loop
      vertex 55.8115 48.5079 215
      vertex 54.8429 48.7565 215
      vertex 54.9606 49.3733 215
    endloop
  endfacet
  facet normal 0 0 -1
    outer loop
      vertex 55.5787 47.7913 215
      vertex 54.6489 48.1594 215
      vertex 54.8429 48.7565 215
    endloop
  endfacet
  facet normal 0 0 -1
    outer loop
      vertex 55.2578 47.1095 215
      vertex 54.3815 47.5912 215
      vertex 54.6489 48.1594 215
    endloop
  endfacet
  facet normal 0 0 -1
    outer loop
      vertex 54.0451 47.0611 215
      vertex 54.8541 46.4733 215
      vertex 54.3738 45.8927 215
    endloop
  endfacet
  facet normal 0 0 -1
    outer loop
      vertex 54.8541 46.4733 215
      vertex 54.0451 47.0611 215
      vertex 54.3815 47.5912 215
    endloop
  endfacet
  facet normal 0 0 -1
    outer loop
      vertex 53.6448 46.5773 215
      vertex 54.3738 45.8927 215
      vertex 53.8245 45.3769 215
    endloop
  endfacet
  facet normal 0 0 -1
    outer loop
      vertex 54.3738 45.8927 215
      vertex 53.6448 46.5773 215
      vertex 54.0451 47.0611 215
    endloop
  endfacet
  facet normal 0 0 -1
    outer loop
      vertex 53.1871 46.1474 215
      vertex 53.8245 45.3769 215
      vertex 53.215 44.934 215
    endloop
  endfacet
  facet normal 0 0 -1
    outer loop
      vertex 53.8245 45.3769 215
      vertex 53.1871 46.1474 215
      vertex 53.6448 46.5773 215
    endloop
  endfacet
  facet normal 0 0 -1
    outer loop
      vertex 53.215 44.934 215
      vertex 52.6791 45.7784 215
      vertex 53.1871 46.1474 215
    endloop
  endfacet
  facet normal 0 0 -1
    outer loop
      vertex 52.5547 44.571 215
      vertex 52.6791 45.7784 215
      vertex 53.215 44.934 215
    endloop
  endfacet
  facet normal 0 0 -1
    outer loop
      vertex 52.5547 44.571 215
      vertex 52.1289 45.4759 215
      vertex 52.6791 45.7784 215
    endloop
  endfacet
  facet normal 0 0 -1
    outer loop
      vertex 51.8541 44.2937 215
      vertex 52.1289 45.4759 215
      vertex 52.5547 44.571 215
    endloop
  endfacet
  facet normal 0 0 -1
    outer loop
      vertex 51.8541 44.2937 215
      vertex 51.5451 45.2447 215
      vertex 52.1289 45.4759 215
    endloop
  endfacet
  facet normal 0 0 -1
    outer loop
      vertex 51.1243 44.1063 215
      vertex 51.5451 45.2447 215
      vertex 51.8541 44.2937 215
    endloop
  endfacet
  facet normal 0 0 -1
    outer loop
      vertex 51.1243 44.1063 215
      vertex 50.9369 45.0886 215
      vertex 51.5451 45.2447 215
    endloop
  endfacet
  facet normal 0 0 -1
    outer loop
      vertex 50.3767 44.0118 215
      vertex 50.9369 45.0886 215
      vertex 51.1243 44.1063 215
    endloop
  endfacet
  facet normal 0 0 -1
    outer loop
      vertex 50.3767 44.0118 215
      vertex 50.314 45.0099 215
      vertex 50.9369 45.0886 215
    endloop
  endfacet
  facet normal 0 0 -1
    outer loop
      vertex 50.3767 44.0118 215
      vertex 49.686 45.0099 215
      vertex 50.314 45.0099 215
    endloop
  endfacet
  facet normal 0 0 -1
    outer loop
      vertex 49.6233 44.0118 215
      vertex 49.686 45.0099 215
      vertex 50.3767 44.0118 215
    endloop
  endfacet
  facet normal 0 0 -1
    outer loop
      vertex 49.6233 44.0118 215
      vertex 49.0631 45.0886 215
      vertex 49.686 45.0099 215
    endloop
  endfacet
  facet normal 0 0 -1
    outer loop
      vertex 48.8757 44.1063 215
      vertex 49.0631 45.0886 215
      vertex 49.6233 44.0118 215
    endloop
  endfacet
  facet normal 0 0 -1
    outer loop
      vertex 48.8757 44.1063 215
      vertex 48.4549 45.2447 215
      vertex 49.0631 45.0886 215
    endloop
  endfacet
  facet normal 0 0 -1
    outer loop
      vertex 48.1459 44.2937 215
      vertex 48.4549 45.2447 215
      vertex 48.8757 44.1063 215
    endloop
  endfacet
  facet normal 0 0 -1
    outer loop
      vertex 48.1459 44.2937 215
      vertex 47.8711 45.4759 215
      vertex 48.4549 45.2447 215
    endloop
  endfacet
  facet normal 0 0 -1
    outer loop
      vertex 47.4453 44.571 215
      vertex 47.8711 45.4759 215
      vertex 48.1459 44.2937 215
    endloop
  endfacet
  facet normal 0 0 -1
    outer loop
      vertex 47.4453 44.571 215
      vertex 47.3209 45.7784 215
      vertex 47.8711 45.4759 215
    endloop
  endfacet
  facet normal 0 0 -1
    outer loop
      vertex 46.785 44.934 215
      vertex 47.3209 45.7784 215
      vertex 47.4453 44.571 215
    endloop
  endfacet
  facet normal -0 0 -1
    outer loop
      vertex 47.3209 45.7784 215
      vertex 46.785 44.934 215
      vertex 46.8129 46.1474 215
    endloop
  endfacet
  facet normal 0 0 -1
    outer loop
      vertex 46.1755 45.3769 215
      vertex 46.8129 46.1474 215
      vertex 46.785 44.934 215
    endloop
  endfacet
  facet normal -0 0 -1
    outer loop
      vertex 46.8129 46.1474 215
      vertex 46.1755 45.3769 215
      vertex 46.3552 46.5773 215
    endloop
  endfacet
  facet normal 0 0 -1
    outer loop
      vertex 45.6262 45.8927 215
      vertex 46.3552 46.5773 215
      vertex 46.1755 45.3769 215
    endloop
  endfacet
  facet normal -0 0 -1
    outer loop
      vertex 46.3552 46.5773 215
      vertex 45.6262 45.8927 215
      vertex 45.9549 47.0611 215
    endloop
  endfacet
  facet normal 0 0 -1
    outer loop
      vertex 45.1459 46.4733 215
      vertex 45.9549 47.0611 215
      vertex 45.6262 45.8927 215
    endloop
  endfacet
  facet normal -0 0 -1
    outer loop
      vertex 45.9549 47.0611 215
      vertex 45.1459 46.4733 215
      vertex 45.6185 47.5912 215
    endloop
  endfacet
  facet normal 0 0 -1
    outer loop
      vertex 44.7422 47.1095 215
      vertex 45.6185 47.5912 215
      vertex 45.1459 46.4733 215
    endloop
  endfacet
  facet normal -0 0 -1
    outer loop
      vertex 45.6185 47.5912 215
      vertex 44.7422 47.1095 215
      vertex 45.3511 48.1594 215
    endloop
  endfacet
  facet normal 0 0 -1
    outer loop
      vertex 44.4213 47.7913 215
      vertex 45.3511 48.1594 215
      vertex 44.7422 47.1095 215
    endloop
  endfacet
  facet normal -0 0 -1
    outer loop
      vertex 45.3511 48.1594 215
      vertex 44.4213 47.7913 215
      vertex 45.1571 48.7565 215
    endloop
  endfacet
  facet normal 0 0 -1
    outer loop
      vertex 44.1885 48.5079 215
      vertex 45.1571 48.7565 215
      vertex 44.4213 47.7913 215
    endloop
  endfacet
  facet normal -0 0 -1
    outer loop
      vertex 55.8115 51.4921 215
      vertex 54.8429 51.2435 215
      vertex 55.5787 52.2087 215
    endloop
  endfacet
  facet normal 0 0 -1
    outer loop
      vertex 54.6489 51.8406 215
      vertex 55.5787 52.2087 215
      vertex 54.8429 51.2435 215
    endloop
  endfacet
  facet normal -0 0 -1
    outer loop
      vertex 55.5787 52.2087 215
      vertex 54.6489 51.8406 215
      vertex 55.2578 52.8905 215
    endloop
  endfacet
  facet normal 0 0 -1
    outer loop
      vertex 54.3815 52.4088 215
      vertex 55.2578 52.8905 215
      vertex 54.6489 51.8406 215
    endloop
  endfacet
  facet normal -0 0 -1
    outer loop
      vertex 55.2578 52.8905 215
      vertex 54.3815 52.4088 215
      vertex 54.8541 53.5267 215
    endloop
  endfacet
  facet normal 0 0 -1
    outer loop
      vertex 54.0451 52.9389 215
      vertex 54.8541 53.5267 215
      vertex 54.3815 52.4088 215
    endloop
  endfacet
  facet normal -0 0 -1
    outer loop
      vertex 54.8541 53.5267 215
      vertex 54.0451 52.9389 215
      vertex 54.3738 54.1073 215
    endloop
  endfacet
  facet normal 0 0 -1
    outer loop
      vertex 53.6448 53.4227 215
      vertex 54.3738 54.1073 215
      vertex 54.0451 52.9389 215
    endloop
  endfacet
  facet normal -0 0 -1
    outer loop
      vertex 54.3738 54.1073 215
      vertex 53.6448 53.4227 215
      vertex 53.8245 54.6231 215
    endloop
  endfacet
  facet normal 0 0 -1
    outer loop
      vertex 53.1871 53.8526 215
      vertex 53.8245 54.6231 215
      vertex 53.6448 53.4227 215
    endloop
  endfacet
  facet normal -0 0 -1
    outer loop
      vertex 53.8245 54.6231 215
      vertex 53.1871 53.8526 215
      vertex 53.215 55.066 215
    endloop
  endfacet
  facet normal 0 0 -1
    outer loop
      vertex 52.6791 54.2216 215
      vertex 53.215 55.066 215
      vertex 53.1871 53.8526 215
    endloop
  endfacet
  facet normal 0 0 -1
    outer loop
      vertex 52.6791 54.2216 215
      vertex 52.5547 55.429 215
      vertex 53.215 55.066 215
    endloop
  endfacet
  facet normal 0 0 -1
    outer loop
      vertex 52.1289 54.5241 215
      vertex 52.5547 55.429 215
      vertex 52.6791 54.2216 215
    endloop
  endfacet
  facet normal 0 0 -1
    outer loop
      vertex 52.1289 54.5241 215
      vertex 51.8541 55.7063 215
      vertex 52.5547 55.429 215
    endloop
  endfacet
  facet normal 0 0 -1
    outer loop
      vertex 51.5451 54.7553 215
      vertex 51.8541 55.7063 215
      vertex 52.1289 54.5241 215
    endloop
  endfacet
  facet normal 0 0 -1
    outer loop
      vertex 51.5451 54.7553 215
      vertex 51.1243 55.8937 215
      vertex 51.8541 55.7063 215
    endloop
  endfacet
  facet normal 0 0 -1
    outer loop
      vertex 50.9369 54.9114 215
      vertex 51.1243 55.8937 215
      vertex 51.5451 54.7553 215
    endloop
  endfacet
  facet normal 0 0 -1
    outer loop
      vertex 50.9369 54.9114 215
      vertex 50.3767 55.9882 215
      vertex 51.1243 55.8937 215
    endloop
  endfacet
  facet normal 0 0 -1
    outer loop
      vertex 50.314 54.9901 215
      vertex 50.3767 55.9882 215
      vertex 50.9369 54.9114 215
    endloop
  endfacet
  facet normal 0 0 -1
    outer loop
      vertex 49.686 54.9901 215
      vertex 50.3767 55.9882 215
      vertex 50.314 54.9901 215
    endloop
  endfacet
  facet normal 0 0 -1
    outer loop
      vertex 49.686 54.9901 215
      vertex 49.6233 55.9882 215
      vertex 50.3767 55.9882 215
    endloop
  endfacet
  facet normal 0 0 -1
    outer loop
      vertex 49.0631 54.9114 215
      vertex 49.6233 55.9882 215
      vertex 49.686 54.9901 215
    endloop
  endfacet
  facet normal 0 0 -1
    outer loop
      vertex 49.0631 54.9114 215
      vertex 48.8757 55.8937 215
      vertex 49.6233 55.9882 215
    endloop
  endfacet
  facet normal 0 0 -1
    outer loop
      vertex 48.4549 54.7553 215
      vertex 48.8757 55.8937 215
      vertex 49.0631 54.9114 215
    endloop
  endfacet
  facet normal 0 0 -1
    outer loop
      vertex 48.4549 54.7553 215
      vertex 48.1459 55.7063 215
      vertex 48.8757 55.8937 215
    endloop
  endfacet
  facet normal 0 0 -1
    outer loop
      vertex 47.8711 54.5241 215
      vertex 48.1459 55.7063 215
      vertex 48.4549 54.7553 215
    endloop
  endfacet
  facet normal 0 0 -1
    outer loop
      vertex 47.8711 54.5241 215
      vertex 47.4453 55.429 215
      vertex 48.1459 55.7063 215
    endloop
  endfacet
  facet normal 0 0 -1
    outer loop
      vertex 47.3209 54.2216 215
      vertex 47.4453 55.429 215
      vertex 47.8711 54.5241 215
    endloop
  endfacet
  facet normal 0 0 -1
    outer loop
      vertex 46.785 55.066 215
      vertex 47.3209 54.2216 215
      vertex 46.8129 53.8526 215
    endloop
  endfacet
  facet normal 0 0 -1
    outer loop
      vertex 47.3209 54.2216 215
      vertex 46.785 55.066 215
      vertex 47.4453 55.429 215
    endloop
  endfacet
  facet normal 0 0 -1
    outer loop
      vertex 46.1755 54.6231 215
      vertex 46.8129 53.8526 215
      vertex 46.3552 53.4227 215
    endloop
  endfacet
  facet normal 0 0 -1
    outer loop
      vertex 46.8129 53.8526 215
      vertex 46.1755 54.6231 215
      vertex 46.785 55.066 215
    endloop
  endfacet
  facet normal 0 0 -1
    outer loop
      vertex 45.6262 54.1073 215
      vertex 46.3552 53.4227 215
      vertex 45.9549 52.9389 215
    endloop
  endfacet
  facet normal 0 0 -1
    outer loop
      vertex 46.3552 53.4227 215
      vertex 45.6262 54.1073 215
      vertex 46.1755 54.6231 215
    endloop
  endfacet
  facet normal 0 0 -1
    outer loop
      vertex 45.1459 53.5267 215
      vertex 45.9549 52.9389 215
      vertex 45.6185 52.4088 215
    endloop
  endfacet
  facet normal 0 0 -1
    outer loop
      vertex 44.7422 52.8905 215
      vertex 45.6185 52.4088 215
      vertex 45.3511 51.8406 215
    endloop
  endfacet
  facet normal 0 0 -1
    outer loop
      vertex 44.4213 52.2087 215
      vertex 45.3511 51.8406 215
      vertex 45.1571 51.2435 215
    endloop
  endfacet
  facet normal 0 0 -1
    outer loop
      vertex 45.9549 52.9389 215
      vertex 45.1459 53.5267 215
      vertex 45.6262 54.1073 215
    endloop
  endfacet
  facet normal 0 0 -1
    outer loop
      vertex 44.1885 51.4921 215
      vertex 45.1571 51.2435 215
      vertex 45.0394 50.6267 215
    endloop
  endfacet
  facet normal 0 0 -1
    outer loop
      vertex 44.0473 50.752 215
      vertex 45.0394 50.6267 215
      vertex 45 50 215
    endloop
  endfacet
  facet normal -0 0 -1
    outer loop
      vertex 45.1571 48.7565 215
      vertex 44.1885 48.5079 215
      vertex 45.0394 49.3733 215
    endloop
  endfacet
  facet normal 0 0 -1
    outer loop
      vertex 45.6185 52.4088 215
      vertex 44.7422 52.8905 215
      vertex 45.1459 53.5267 215
    endloop
  endfacet
  facet normal 0 0 -1
    outer loop
      vertex 44.0473 49.248 215
      vertex 45.0394 49.3733 215
      vertex 44.1885 48.5079 215
    endloop
  endfacet
  facet normal 0 0 -1
    outer loop
      vertex 45.3511 51.8406 215
      vertex 44.4213 52.2087 215
      vertex 44.7422 52.8905 215
    endloop
  endfacet
  facet normal -0 0 -1
    outer loop
      vertex 45.0394 49.3733 215
      vertex 44.0473 49.248 215
      vertex 45 50 215
    endloop
  endfacet
  facet normal 0 0 -1
    outer loop
      vertex 45.1571 51.2435 215
      vertex 44.1885 51.4921 215
      vertex 44.4213 52.2087 215
    endloop
  endfacet
  facet normal 0 0 -1
    outer loop
      vertex 44 50 215
      vertex 45 50 215
      vertex 44.0473 49.248 215
    endloop
  endfacet
  facet normal 0 0 -1
    outer loop
      vertex 45.0394 50.6267 215
      vertex 44.0473 50.752 215
      vertex 44.1885 51.4921 215
    endloop
  endfacet
  facet normal 0 0 -1
    outer loop
      vertex 45 50 215
      vertex 44 50 215
      vertex 44.0473 50.752 215
    endloop
  endfacet
  facet normal -0.368124 0.929777 0
    outer loop
      vertex 48.4549 54.7553 215
      vertex 47.8711 54.5241 208.869
      vertex 47.8711 54.5241 215
    endloop
  endfacet
  facet normal -0.368124 0.929777 0
    outer loop
      vertex 47.8711 54.5241 208.869
      vertex 48.4549 54.7553 215
      vertex 48.4549 54.7553 208.811
    endloop
  endfacet
  facet normal 0.998027 -0.062794 0
    outer loop
      vertex 54.9606 49.3733 208.76
      vertex 55 50 215
      vertex 54.9606 49.3733 215
    endloop
  endfacet
  facet normal 0.998027 -0.062794 0
    outer loop
      vertex 55 50 215
      vertex 54.9606 49.3733 208.76
      vertex 55 50 208.75
    endloop
  endfacet
  facet normal 0.770514 -0.637423 0
    outer loop
      vertex 53.6448 46.5773 209.089
      vertex 54.0451 47.0611 215
      vertex 53.6448 46.5773 215
    endloop
  endfacet
  facet normal 0.770514 -0.637423 0
    outer loop
      vertex 54.0451 47.0611 215
      vertex 53.6448 46.5773 209.089
      vertex 54.0451 47.0611 208.989
    endloop
  endfacet
  facet normal 0.951056 -0.309019 0
    outer loop
      vertex 54.6489 48.1594 208.838
      vertex 54.8429 48.7565 215
      vertex 54.6489 48.1594 215
    endloop
  endfacet
  facet normal 0.951056 -0.309019 0
    outer loop
      vertex 54.8429 48.7565 215
      vertex 54.6489 48.1594 208.838
      vertex 54.8429 48.7565 208.789
    endloop
  endfacet
  facet normal 0.982288 -0.18738 0
    outer loop
      vertex 54.8429 48.7565 208.789
      vertex 54.9606 49.3733 215
      vertex 54.8429 48.7565 215
    endloop
  endfacet
  facet normal 0.982288 -0.18738 0
    outer loop
      vertex 54.9606 49.3733 215
      vertex 54.8429 48.7565 208.789
      vertex 54.9606 49.3733 208.76
    endloop
  endfacet
  facet normal 0.48175 -0.876309 0
    outer loop
      vertex 52.1289 45.4759 215
      vertex 52.6791 45.7784 208.945
      vertex 52.6791 45.7784 215
    endloop
  endfacet
  facet normal 0.48175 -0.876309 0
    outer loop
      vertex 52.6791 45.7784 208.945
      vertex 52.1289 45.4759 215
      vertex 52.1289 45.4759 208.869
    endloop
  endfacet
  facet normal -0.998027 -0.0627879 0
    outer loop
      vertex 45.0394 49.3733 208.76
      vertex 45 50 215
      vertex 45 50 208.75
    endloop
  endfacet
  facet normal -0.998027 -0.0627879 0
    outer loop
      vertex 45 50 215
      vertex 45.0394 49.3733 208.76
      vertex 45.0394 49.3733 215
    endloop
  endfacet
  facet normal -0.587785 0.809017 0
    outer loop
      vertex 47.3209 54.2216 215
      vertex 46.8129 53.8526 209.037
      vertex 46.8129 53.8526 215
    endloop
  endfacet
  facet normal -0.587785 0.809017 0
    outer loop
      vertex 46.8129 53.8526 209.037
      vertex 47.3209 54.2216 215
      vertex 47.3209 54.2216 208.945
    endloop
  endfacet
  facet normal 0.587789 -0.809014 0
    outer loop
      vertex 52.6791 45.7784 215
      vertex 53.1871 46.1474 209.037
      vertex 53.1871 46.1474 215
    endloop
  endfacet
  facet normal 0.587789 -0.809014 0
    outer loop
      vertex 53.1871 46.1474 209.037
      vertex 52.6791 45.7784 215
      vertex 52.6791 45.7784 208.945
    endloop
  endfacet
  facet normal 0.844331 -0.535822 0
    outer loop
      vertex 54.0451 47.0611 208.989
      vertex 54.3815 47.5912 215
      vertex 54.0451 47.0611 215
    endloop
  endfacet
  facet normal 0.844331 -0.535822 0
    outer loop
      vertex 54.3815 47.5912 215
      vertex 54.0451 47.0611 208.989
      vertex 54.3815 47.5912 208.905
    endloop
  endfacet
  facet normal -0.24869 -0.968583 0
    outer loop
      vertex 48.4549 45.2447 208.811
      vertex 49.0631 45.0886 215
      vertex 48.4549 45.2447 215
    endloop
  endfacet
  facet normal -0.24869 -0.968583 -0
    outer loop
      vertex 49.0631 45.0886 215
      vertex 48.4549 45.2447 208.811
      vertex 49.0631 45.0886 208.772
    endloop
  endfacet
  facet normal -0.481753 -0.876307 0
    outer loop
      vertex 47.3209 45.7784 208.945
      vertex 47.8711 45.4759 215
      vertex 47.3209 45.7784 215
    endloop
  endfacet
  facet normal -0.481753 -0.876307 -0
    outer loop
      vertex 47.8711 45.4759 215
      vertex 47.3209 45.7784 208.945
      vertex 47.8711 45.4759 208.869
    endloop
  endfacet
  facet normal -0.684544 -0.728972 2.2657e-08
    outer loop
      vertex 46.3552 46.5773 215
      vertex 46.4697 46.4697 209.117
      vertex 46.8129 46.1474 215
    endloop
  endfacet
  facet normal -0.684544 -0.728971 0
    outer loop
      vertex 46.4697 46.4697 209.117
      vertex 46.3552 46.5773 215
      vertex 46.3552 46.5773 209.089
    endloop
  endfacet
  facet normal -0.684543 -0.728972 -0
    outer loop
      vertex 46.8129 46.1474 215
      vertex 46.4697 46.4697 209.117
      vertex 46.8129 46.1474 209.037
    endloop
  endfacet
  facet normal -0.844328 -0.535826 0
    outer loop
      vertex 45.9549 47.0611 208.989
      vertex 45.6185 47.5912 215
      vertex 45.6185 47.5912 208.905
    endloop
  endfacet
  facet normal -0.844328 -0.535826 0
    outer loop
      vertex 45.6185 47.5912 215
      vertex 45.9549 47.0611 208.989
      vertex 45.9549 47.0611 215
    endloop
  endfacet
  facet normal -0.982288 -0.18738 0
    outer loop
      vertex 45.1571 48.7565 208.789
      vertex 45.0394 49.3733 215
      vertex 45.0394 49.3733 208.76
    endloop
  endfacet
  facet normal -0.982288 -0.18738 0
    outer loop
      vertex 45.0394 49.3733 215
      vertex 45.1571 48.7565 208.789
      vertex 45.1571 48.7565 215
    endloop
  endfacet
  facet normal -0.951056 -0.309019 0
    outer loop
      vertex 45.3511 48.1594 208.838
      vertex 45.1571 48.7565 215
      vertex 45.1571 48.7565 208.789
    endloop
  endfacet
  facet normal -0.951056 -0.309019 0
    outer loop
      vertex 45.1571 48.7565 215
      vertex 45.3511 48.1594 208.838
      vertex 45.3511 48.1594 215
    endloop
  endfacet
  facet normal -0.904827 -0.425779 0
    outer loop
      vertex 45.6185 47.5912 208.905
      vertex 45.3511 48.1594 215
      vertex 45.3511 48.1594 208.838
    endloop
  endfacet
  facet normal -0.904827 -0.425779 0
    outer loop
      vertex 45.3511 48.1594 215
      vertex 45.6185 47.5912 208.905
      vertex 45.6185 47.5912 215
    endloop
  endfacet
  facet normal 0.368127 -0.929776 0
    outer loop
      vertex 51.5451 45.2447 215
      vertex 52.1289 45.4759 208.869
      vertex 52.1289 45.4759 215
    endloop
  endfacet
  facet normal 0.368127 -0.929776 0
    outer loop
      vertex 52.1289 45.4759 208.869
      vertex 51.5451 45.2447 215
      vertex 51.5451 45.2447 208.811
    endloop
  endfacet
  facet normal 0.684544 -0.728972 2.2657e-08
    outer loop
      vertex 53.1871 46.1474 215
      vertex 53.5303 46.4697 209.117
      vertex 53.6448 46.5773 215
    endloop
  endfacet
  facet normal 0.684543 -0.728972 0
    outer loop
      vertex 53.5303 46.4697 209.117
      vertex 53.1871 46.1474 215
      vertex 53.1871 46.1474 209.037
    endloop
  endfacet
  facet normal 0.684544 -0.728971 0
    outer loop
      vertex 53.6448 46.5773 215
      vertex 53.5303 46.4697 209.117
      vertex 53.6448 46.5773 209.089
    endloop
  endfacet
  facet normal 0.904827 -0.425779 0
    outer loop
      vertex 54.3815 47.5912 208.905
      vertex 54.6489 48.1594 215
      vertex 54.3815 47.5912 215
    endloop
  endfacet
  facet normal 0.904827 -0.425779 0
    outer loop
      vertex 54.6489 48.1594 215
      vertex 54.3815 47.5912 208.905
      vertex 54.6489 48.1594 208.838
    endloop
  endfacet
  facet normal -0.368124 -0.929777 0
    outer loop
      vertex 47.8711 45.4759 208.869
      vertex 48.4549 45.2447 215
      vertex 47.8711 45.4759 215
    endloop
  endfacet
  facet normal -0.368124 -0.929777 -0
    outer loop
      vertex 48.4549 45.2447 215
      vertex 47.8711 45.4759 208.869
      vertex 48.4549 45.2447 208.811
    endloop
  endfacet
  facet normal -0.587789 -0.809014 0
    outer loop
      vertex 46.8129 46.1474 209.037
      vertex 47.3209 45.7784 215
      vertex 46.8129 46.1474 215
    endloop
  endfacet
  facet normal -0.587789 -0.809014 -0
    outer loop
      vertex 47.3209 45.7784 215
      vertex 46.8129 46.1474 209.037
      vertex 47.3209 45.7784 208.945
    endloop
  endfacet
  facet normal -0.770514 -0.637423 0
    outer loop
      vertex 46.3552 46.5773 209.089
      vertex 45.9549 47.0611 215
      vertex 45.9549 47.0611 208.989
    endloop
  endfacet
  facet normal -0.770514 -0.637423 0
    outer loop
      vertex 45.9549 47.0611 215
      vertex 46.3552 46.5773 209.089
      vertex 46.3552 46.5773 215
    endloop
  endfacet
  facet normal -0.125333 -0.992115 0
    outer loop
      vertex 49.0631 45.0886 208.772
      vertex 49.686 45.0099 215
      vertex 49.0631 45.0886 215
    endloop
  endfacet
  facet normal -0.125333 -0.992115 -0
    outer loop
      vertex 49.686 45.0099 215
      vertex 49.0631 45.0886 208.772
      vertex 49.686 45.0099 208.752
    endloop
  endfacet
  facet normal 0 -1 0
    outer loop
      vertex 49.686 45.0099 208.752
      vertex 50.314 45.0099 215
      vertex 49.686 45.0099 215
    endloop
  endfacet
  facet normal 0 -1 -0
    outer loop
      vertex 50.314 45.0099 215
      vertex 49.686 45.0099 208.752
      vertex 50.314 45.0099 208.752
    endloop
  endfacet
  facet normal 0.639666 0.040246 0.767599
    outer loop
      vertex 55.9527 50.752 215
      vertex 50 50 220
      vertex 56 50 215
    endloop
  endfacet
  facet normal -0.629578 -0.120098 0.767599
    outer loop
      vertex 50 50 220
      vertex 44.0473 49.248 215
      vertex 44.1885 48.5079 215
    endloop
  endfacet
  facet normal -0.159394 0.620794 0.767599
    outer loop
      vertex 48.8757 55.8937 215
      vertex 48.1459 55.7063 215
      vertex 50 50 220
    endloop
  endfacet
  facet normal 0.0803299 -0.635877 0.767599
    outer loop
      vertex 51.1243 44.1063 215
      vertex 50 50 220
      vertex 50.3767 44.0118 215
    endloop
  endfacet
  facet normal -0.541156 0.343427 0.767599
    outer loop
      vertex 45.1459 53.5267 215
      vertex 44.7422 52.8905 215
      vertex 50 50 220
    endloop
  endfacet
  facet normal 0.37673 0.518523 0.767599
    outer loop
      vertex 53.215 55.066 215
      vertex 50 50 220
      vertex 53.8245 54.6231 215
    endloop
  endfacet
  facet normal -0.376729 -0.518524 0.767599
    outer loop
      vertex 50 50 220
      vertex 46.1755 45.3769 215
      vertex 46.785 44.934 215
    endloop
  endfacet
  facet normal 0.493845 -0.408545 0.767599
    outer loop
      vertex 54.8541 46.4733 215
      vertex 50 50 220
      vertex 54.3738 45.8927 215
    endloop
  endfacet
  facet normal -0.376732 0.518522 0.767599
    outer loop
      vertex 46.785 55.066 215
      vertex 46.1755 54.6231 215
      vertex 50 50 220
    endloop
  endfacet
  facet normal -0.629578 0.120099 0.767599
    outer loop
      vertex 44.1885 51.4921 215
      vertex 44.0473 50.752 215
      vertex 50 50 220
    endloop
  endfacet
  facet normal 0.0803299 0.635877 0.767599
    outer loop
      vertex 50.3767 55.9882 215
      vertex 50 50 220
      vertex 51.1243 55.8937 215
    endloop
  endfacet
  facet normal 0.541156 0.343427 0.767599
    outer loop
      vertex 54.8541 53.5267 215
      vertex 50 50 220
      vertex 55.2578 52.8905 215
    endloop
  endfacet
  facet normal -0.541156 -0.343427 0.767599
    outer loop
      vertex 50 50 220
      vertex 44.7422 47.1095 215
      vertex 45.1459 46.4733 215
    endloop
  endfacet
  facet normal -0.159391 -0.620795 0.767599
    outer loop
      vertex 50 50 220
      vertex 48.1459 44.2937 215
      vertex 48.8757 44.1063 215
    endloop
  endfacet
  facet normal 0.308772 -0.561651 0.767599
    outer loop
      vertex 53.215 44.934 215
      vertex 50 50 220
      vertex 52.5547 44.571 215
    endloop
  endfacet
  facet normal 0.609561 -0.19806 0.767599
    outer loop
      vertex 55.8115 48.5079 215
      vertex 50 50 220
      vertex 55.5787 47.7913 215
    endloop
  endfacet
  facet normal -0.308771 0.561652 0.767599
    outer loop
      vertex 47.4453 55.429 215
      vertex 46.785 55.066 215
      vertex 50 50 220
    endloop
  endfacet
  facet normal -0.438746 0.467219 0.767599
    outer loop
      vertex 46.1755 54.6231 215
      vertex 45.6262 54.1073 215
      vertex 50 50 220
    endloop
  endfacet
  facet normal -0.579931 0.272896 0.767599
    outer loop
      vertex 44.7422 52.8905 215
      vertex 44.4213 52.2087 215
      vertex 50 50 220
    endloop
  endfacet
  facet normal -0.639666 -0.0402428 0.767599
    outer loop
      vertex 50 50 220
      vertex 44 50 215
      vertex 44.0473 49.248 215
    endloop
  endfacet
  facet normal 0.235941 0.595923 0.767599
    outer loop
      vertex 51.8541 55.7063 215
      vertex 50 50 220
      vertex 52.5547 55.429 215
    endloop
  endfacet
  facet normal 0 0.640931 0.767599
    outer loop
      vertex 50.3767 55.9882 215
      vertex 49.6233 55.9882 215
      vertex 50 50 220
    endloop
  endfacet
  facet normal 0.438748 0.467218 0.767599
    outer loop
      vertex 53.8245 54.6231 215
      vertex 50 50 220
      vertex 54.3738 54.1073 215
    endloop
  endfacet
  facet normal 0.609561 0.198059 0.767599
    outer loop
      vertex 55.5787 52.2087 215
      vertex 50 50 220
      vertex 55.8115 51.4921 215
    endloop
  endfacet
  facet normal 0.629578 0.120096 0.767599
    outer loop
      vertex 55.8115 51.4921 215
      vertex 50 50 220
      vertex 55.9527 50.752 215
    endloop
  endfacet
  facet normal -0.609561 -0.19806 0.767599
    outer loop
      vertex 50 50 220
      vertex 44.1885 48.5079 215
      vertex 44.4213 47.7913 215
    endloop
  endfacet
  facet normal -0.438746 -0.467219 0.767599
    outer loop
      vertex 50 50 220
      vertex 45.6262 45.8927 215
      vertex 46.1755 45.3769 215
    endloop
  endfacet
  facet normal -0.235943 -0.595922 0.767599
    outer loop
      vertex 50 50 220
      vertex 47.4453 44.571 215
      vertex 48.1459 44.2937 215
    endloop
  endfacet
  facet normal -0.0803295 -0.635877 0.767599
    outer loop
      vertex 50 50 220
      vertex 48.8757 44.1063 215
      vertex 49.6233 44.0118 215
    endloop
  endfacet
  facet normal 0.15939 -0.620795 0.767599
    outer loop
      vertex 51.8541 44.2937 215
      vertex 50 50 220
      vertex 51.1243 44.1063 215
    endloop
  endfacet
  facet normal 0.438747 -0.467218 0.767599
    outer loop
      vertex 54.3738 45.8927 215
      vertex 50 50 220
      vertex 53.8245 45.3769 215
    endloop
  endfacet
  facet normal 0.579931 -0.272896 0.767599
    outer loop
      vertex 55.5787 47.7913 215
      vertex 50 50 220
      vertex 55.2578 47.1095 215
    endloop
  endfacet
  facet normal 0.629578 -0.120095 0.767599
    outer loop
      vertex 55.9527 49.248 215
      vertex 50 50 220
      vertex 55.8115 48.5079 215
    endloop
  endfacet
  facet normal -0.235941 0.595923 0.767599
    outer loop
      vertex 48.1459 55.7063 215
      vertex 47.4453 55.429 215
      vertex 50 50 220
    endloop
  endfacet
  facet normal -0.493845 0.408544 0.767599
    outer loop
      vertex 45.6262 54.1073 215
      vertex 45.1459 53.5267 215
      vertex 50 50 220
    endloop
  endfacet
  facet normal -0.609561 0.198059 0.767599
    outer loop
      vertex 44.4213 52.2087 215
      vertex 44.1885 51.4921 215
      vertex 50 50 220
    endloop
  endfacet
  facet normal -0.639666 0.0402428 0.767599
    outer loop
      vertex 44.0473 50.752 215
      vertex 44 50 215
      vertex 50 50 220
    endloop
  endfacet
  facet normal 0.308772 0.561651 0.767599
    outer loop
      vertex 52.5547 55.429 215
      vertex 50 50 220
      vertex 53.215 55.066 215
    endloop
  endfacet
  facet normal 0.159393 0.620794 0.767599
    outer loop
      vertex 51.1243 55.8937 215
      vertex 50 50 220
      vertex 51.8541 55.7063 215
    endloop
  endfacet
  facet normal -0.0803295 0.635877 0.767599
    outer loop
      vertex 49.6233 55.9882 215
      vertex 48.8757 55.8937 215
      vertex 50 50 220
    endloop
  endfacet
  facet normal 0.493844 0.408546 0.767599
    outer loop
      vertex 54.3738 54.1073 215
      vertex 50 50 220
      vertex 54.8541 53.5267 215
    endloop
  endfacet
  facet normal 0.579931 0.272896 0.767599
    outer loop
      vertex 55.2578 52.8905 215
      vertex 50 50 220
      vertex 55.5787 52.2087 215
    endloop
  endfacet
  facet normal -0.579931 -0.272896 0.767599
    outer loop
      vertex 50 50 220
      vertex 44.4213 47.7913 215
      vertex 44.7422 47.1095 215
    endloop
  endfacet
  facet normal -0.493847 -0.408543 0.767599
    outer loop
      vertex 50 50 220
      vertex 45.1459 46.4733 215
      vertex 45.6262 45.8927 215
    endloop
  endfacet
  facet normal -0.308771 -0.561652 0.767599
    outer loop
      vertex 50 50 220
      vertex 46.785 44.934 215
      vertex 47.4453 44.571 215
    endloop
  endfacet
  facet normal 0 -0.640931 0.767599
    outer loop
      vertex 50 50 220
      vertex 49.6233 44.0118 215
      vertex 50.3767 44.0118 215
    endloop
  endfacet
  facet normal 0.235943 -0.595922 0.767599
    outer loop
      vertex 52.5547 44.571 215
      vertex 50 50 220
      vertex 51.8541 44.2937 215
    endloop
  endfacet
  facet normal 0.376728 -0.518525 0.767599
    outer loop
      vertex 53.8245 45.3769 215
      vertex 50 50 220
      vertex 53.215 44.934 215
    endloop
  endfacet
  facet normal 0.541156 -0.343427 0.767599
    outer loop
      vertex 55.2578 47.1095 215
      vertex 50 50 220
      vertex 54.8541 46.4733 215
    endloop
  endfacet
  facet normal 0.639666 -0.040246 0.767599
    outer loop
      vertex 56 50 215
      vertex 50 50 220
      vertex 55.9527 49.248 215
    endloop
  endfacet
endsolid OpenSCAD_Model
